<?xml version="1.0" standalone="no"?>
<!DOCTYPE svg PUBLIC "-//W3C//DTD SVG 20010904//EN"
 "http://www.w3.org/TR/2001/REC-SVG-20010904/DTD/svg10.dtd">
<svg version="1.0" xmlns="http://www.w3.org/2000/svg"
 width="1024.000000pt" height="1024.000000pt" viewBox="0 0 1024.000000 1024.000000"
 preserveAspectRatio="xMidYMid meet">
<metadata>
Created by potrace 1.14, written by Peter Selinger 2001-2017
</metadata>
<g transform="translate(0.000000,1024.000000) scale(0.100000,-0.100000)"
fill="#000000" stroke="none">
<path d="M1375 10233 c-26 -3 -201 -37 -245 -48 -45 -10 -203 -71 -272 -105
-86 -43 -268 -159 -268 -172 0 -4 -4 -8 -10 -8 -6 0 -18 -8 -28 -17 -10 -10
-38 -36 -63 -59 -190 -175 -361 -450 -424 -684 -28 -101 -35 -132 -41 -170 -3
-25 -9 -56 -12 -70 -10 -43 -12 -7469 -1 -7540 21 -150 73 -354 98 -384 5 -6
10 -15 11 -21 6 -25 38 -95 87 -185 42 -79 123 -188 203 -274 96 -103 155
-153 270 -231 179 -120 409 -214 585 -240 22 -3 65 -9 95 -15 33 -5 1534 -9
3760 -9 3042 0 3720 3 3791 14 131 20 328 73 355 95 6 5 19 11 30 13 47 7 261
131 354 206 54 43 145 127 174 160 12 13 26 29 32 35 43 45 111 138 163 224
33 56 61 103 61 106 0 3 13 33 29 68 43 93 97 267 107 346 2 20 8 48 12 62 3
14 8 1704 9 3755 2 3202 0 3743 -12 3825 -28 186 -64 300 -142 460 -53 109
-127 231 -145 238 -4 2 -8 10 -8 17 0 8 -6 18 -13 22 -6 4 -32 33 -57 63 -25
30 -55 64 -67 75 -13 11 -48 44 -79 72 -151 142 -391 268 -633 334 -185 50 -8
48 -3971 47 -2038 -1 -3718 -3 -3735 -5z"/>
</g>
</svg>
